<?xml version="1.0" encoding="UTF-8" standalone="no"?>
<!-- Created with Inkscape (http://www.inkscape.org/) -->

<svg
   width="284.56201mm"
   height="154.95595mm"
   viewBox="0 0 284.56201 154.95595"
   version="1.1"
   id="svg5"
   xml:space="preserve"
   inkscape:version="1.2.2 (b0a8486541, 2022-12-01)"
   sodipodi:docname="logo_master.svg"
   xmlns:inkscape="http://www.inkscape.org/namespaces/inkscape"
   xmlns:sodipodi="http://sodipodi.sourceforge.net/DTD/sodipodi-0.dtd"
   xmlns="http://www.w3.org/2000/svg"
   xmlns:svg="http://www.w3.org/2000/svg"><sodipodi:namedview
     id="namedview7"
     pagecolor="#ffffff"
     bordercolor="#000000"
     borderopacity="0.25"
     inkscape:showpageshadow="2"
     inkscape:pageopacity="0.0"
     inkscape:pagecheckerboard="0"
     inkscape:deskcolor="#d1d1d1"
     inkscape:document-units="mm"
     showgrid="false"
     inkscape:zoom="0.3928112"
     inkscape:cx="596.9789"
     inkscape:cy="506.6047"
     inkscape:window-width="1272"
     inkscape:window-height="710"
     inkscape:window-x="0"
     inkscape:window-y="0"
     inkscape:window-maximized="1"
     inkscape:current-layer="layer1"
     showguides="true" /><defs
     id="defs2"><clipPath
       clipPathUnits="userSpaceOnUse"
       id="clipPath1672"><rect
         style="fill:#c83737;fill-opacity:1;stroke:#000000;stroke-width:0.72295;stroke-dasharray:none"
         id="rect1674"
         width="14.229772"
         height="14.608027"
         x="35.757671"
         y="38.919094"
         transform="rotate(18.95611)" /></clipPath></defs><g
     inkscape:label="Слой 1"
     inkscape:groupmode="layer"
     id="layer1"
     transform="translate(72.051124,-125.9426)"><g
       id="g27374"><path
         style="fill:#1a1a1a;fill-opacity:1;stroke:none;stroke-width:0.161971;stroke-dasharray:none"
         d="m 436.11019,568.04659 c -11.69016,0.19778 -23.42985,3.03082 -32.96315,9.89134 -0.91971,2.67413 -5.0967,2.28286 -4.45224,4.829 0.48205,0.46319 -0.0377,0.84584 0.49541,1.08022 2.16473,0.95172 5.64663,0.38212 7.23975,1.85775 0.7475,1.63498 -1.216,1.50722 -2.15188,2.02301 -0.16893,0.33418 -5.91077,-1.22871 -6.21871,-0.90939 -0.58351,0.6051 4.73811,2.28401 4.90731,2.48512 0.7728,0.91857 3.71647,1.81954 4.3942,2.43886 5.18946,2.77741 9.34903,7.22068 12.44611,12.09111 -1.3466,-0.14633 -19.37062,-10.25149 -20.98873,-8.43608 0.70205,1.40289 18.35743,10.36456 20.38149,12.04462 5.67132,3.34018 8.71358,10.48075 14.94184,13.32937 2.41566,2.74539 0.53762,-2.99887 1.03618,-4.10661 0.59737,-3.09487 6.4305,0.0302 7.48205,0.47019 -0.0969,-0.39455 -2.60842,-2.37108 -2.841,-2.7699 -1.21894,-2.09022 -3.85499,-4.25563 -3.23321,-6.66964 0.72457,-1.21804 2.90803,-0.1985 3.79384,0.28544 0.40075,0.21894 0.31038,-0.97103 0.28405,-1.74434 0.76262,-2.98768 3.44983,-3.75787 6.76971,-4.48217 0.14354,-0.10088 0.65017,0.16872 1.04114,0.012 0.32674,-0.13095 0.54242,-0.69433 0.6855,-0.74063 1.81768,-0.58809 3.47605,0.44706 4.91256,1.65185 1.8065,0.70538 3.17612,3.68034 4.02276,4.69594 0.23309,0.27961 0.69992,0.0452 1.00193,-0.15213 0.94697,-0.22309 0.65693,-4.52943 1.32393,-2.74092 1.48948,5.13611 5.48969,8.41645 10.2004,10.91918 2.2587,2.17866 6.00928,4.03433 6.24927,7.53847 -0.62669,3.1071 -4.34142,2.39489 -6.67732,2.24542 -2.71541,-0.43775 -6.07569,-1.18832 -8.33354,1.20221 -7.02121,3.62414 -15.23013,1.47256 -22.06986,-1.56178 -0.36602,-0.19026 -3.64938,-3.25302 -3.99522,-2.7498 -0.0296,0.0431 1.73319,3.06163 1.45196,3.15151 -0.74404,0.23779 -0.35417,0.4244 -2.5812,-0.44778 -7.06472,-3.805 -11.76918,-9.37277 -18.71085,-13.63345 -0.64459,-0.56189 -3.33394,-2.69031 -3.48762,-1.23303 -0.0737,0.69891 1.31353,3.30629 1.48174,3.89752 0.14484,1.40357 0.51912,3.16503 0.0778,4.41018 -8.16639,-4.48348 -18.87412,-13.68029 -27.1685,-17.91231 -1.26399,-0.92479 3.81277,5.07514 3.63626,6.17749 2.87399,8.34754 -0.20593,17.81943 4.04821,25.7824 3.47098,5.895 10.47057,9.78775 12.47261,16.50732 -0.72489,7.35679 -3.24767,13.12717 -3.46532,22.57972 -3.54648,19.15777 0.13128,28.27445 0.60013,38.4438 0.32534,1.57038 -0.19086,4.18103 1.28232,5.25969 6.60749,-0.22471 12.15875,-6.09497 14.80889,-11.41565 3.24688,-5.51182 6.12249,-11.27673 11.51148,-15.00359 14.65815,-11.55603 31.53664,-20.90282 50.16197,-23.78592 14.58381,-2.39044 29.60062,-2.50485 44.23409,-0.43692 0.82247,-0.0139 6.03222,2.00365 5.47569,1.19534 -3.10068,-3.08118 -8.88221,-8.64477 -11.89954,-14.18541 -3.86762,-7.56118 -3.8208,-16.57808 -6.89543,-25.02255 -5.64648,-23.74184 -24.89472,-42.59361 -46.94038,-52.19899 -9.31685,-3.99933 -19.59502,-6.32381 -29.77874,-6.15706 z"
         id="path2098"
         transform="scale(0.26458333)"
         sodipodi:nodetypes="sccsccsscccccccscsccsscscccccccssccscccccccccccccccccss" /><path
         style="fill:#ffff00;fill-opacity:1;stroke:#000000;stroke-width:0.5;stroke-dasharray:none"
         d="m 94.543744,155.10129 c 2.827619,1.31157 5.443318,2.48983 8.106986,3.87267 0.84035,0.43627 6.38593,4.37465 6.83317,4.62366 0.22116,0.12314 0.11,-1.18231 -0.0799,-1.50343 -0.17669,-0.29874 -0.5133,-0.83916 -0.17001,-0.89035 0.42587,-0.0635 6.00395,4.81426 6.43508,4.2141 0.12892,-0.17946 -0.51232,-0.98585 -0.68979,-1.07458 -0.66362,-0.33182 -1.81842,-1.26533 -2.13142,-1.82085 -0.92557,-1.64275 -5.4657,-3.73599 -8.99352,-5.95729 -2.78373,-1.75278 -10.195306,-3.34374 -9.310576,-1.46393 z"
         id="path1755"
         sodipodi:nodetypes="cssssssssc" /><g
         id="g1596"
         transform="rotate(10.478155,-529.08497,519.92467)"
         style="stroke:#000000;stroke-width:0.5;stroke-dasharray:none"><path
           style="fill:#916f6f;stroke:#000000;stroke-width:0.5;stroke-dasharray:none"
           d="m 3.0436459,35.448345 12.3254391,3.867883 c 1.230664,-9.472989 3.534788,-22.595529 4.608775,-21.212797 l 1.066761,1.820462 c -1.590017,3.053092 -1.504486,6.595717 -2.59151,22.177907 2.641885,5.827518 7.175946,10.846699 9.053429,16.925354 0.451537,3.857273 -3.363837,3.462257 -2.906622,-0.162888 C 21.959951,53.932143 19.834106,45.265109 15.107434,42.070328 10.00583,40.867766 6.5704356,39.168804 1.6113641,37.618655 Z"
           id="path594"
           sodipodi:nodetypes="cccccccccc" /><path
           style="fill:#72916f;fill-opacity:1;stroke:#000000;stroke-width:0.5;stroke-dasharray:none"
           d="M 3.0436459,35.448345 C 3.4884657,34.000469 2.6791435,32.420298 2.9901529,30.784408 3.719582,26.947687 7.9290862,28.126805 9.4595615,26.506374 9.713122,26.237886 8.6143495,26.666092 8.4709506,27.006409 8.1488434,27.770792 8.2597884,28.699714 8.1157184,29.516258 7.5542087,32.698566 6.3182356,34.921074 3.0436459,35.448345 Z"
           id="path661" /><path
           style="fill:#72916f;fill-opacity:1;stroke:#000000;stroke-width:0.5;stroke-dasharray:none"
           d="m 8.6606781,40.103193 c 0.019107,1.760886 -1.3765075,2.29796 -2.3840996,3.472605 -0.5755219,0.670947 -0.046268,1.792069 0.2325517,2.502686 0.00791,0.02016 -0.1715821,-0.691563 0.3857929,-0.947439 0.8613483,-0.395416 1.4236027,0.720208 2.7358959,-0.356926 1.138373,-0.934379 1.241892,-3.802222 -0.2963659,-4.567865 -0.2302504,-0.114603 -0.4520565,-0.0454 -0.673775,-0.103061 z"
           id="path1280" /><path
           style="fill:#72916f;fill-opacity:1;stroke:#000000;stroke-width:0.5;stroke-dasharray:none"
           d="m 15.638537,37.308236 c -0.31639,-1.756496 -3.998032,-1.384398 -4.419775,-2.729529 -0.06452,-0.205787 -0.05117,-0.432448 -0.02496,-0.646516 0.04511,-0.368369 0.315763,-1.180711 0.445904,-1.540302 0.569876,-1.574621 0.20525,0.366662 1.44283,0.76683 0.531951,0.172006 1.783729,-0.05064 2.187747,0.402592 0.705275,0.791176 0.163706,2.672945 0.368256,3.746925 z"
           id="path1282" /><path
           style="fill:#72916f;fill-opacity:1;stroke:#000000;stroke-width:0.5;stroke-dasharray:none"
           d="m 19.617919,25.747306 c 1.921968,0.09913 3.376124,1.326123 4.583841,2.706292 1.210658,1.383529 0.426041,4.047826 1.733574,5.181372 1.073527,0.930679 2.699726,-0.986079 3.840771,-0.681988 0.406784,0.108407 -0.891468,-0.336209 -1.027269,-0.734686 -0.540686,-1.586513 0.240569,-3.23733 -0.0544,-4.793483 -0.926282,-4.886748 -6.440206,-1.764795 -9.076517,-1.677507 z"
           id="path1284" /><path
           style="fill:#72916f;fill-opacity:1;stroke:#000000;stroke-width:0.5;stroke-dasharray:none"
           d="m 21.834534,52.590124 c -3.974238,0.586817 -1.8446,4.725347 -3.186029,6.633658 -2.093712,2.978503 -6.589937,2.43225 -9.0303184,0.646795 1.8615014,1.21739 3.4057604,-2.066856 3.5223084,-3.351775 0.264141,-2.912116 4.502423,-6.656647 6.89116,-5.559274 0.743874,0.341733 1.266489,1.028249 1.802879,1.630596 z"
           id="path1286"
           sodipodi:nodetypes="cscssc" /></g><path
         style="fill:#666666;fill-opacity:1;stroke:#666666;stroke-width:0.040995;stroke-linejoin:round;stroke-dasharray:none;stroke-opacity:1"
         d="m 585.78952,1022.8858 c -2.11813,0.022 -4.24218,0.2833 -6.28748,0.8373 -0.49779,0.2508 -0.40297,0.9624 -0.0736,1.3157 0.61926,0.7122 1.5097,1.101 2.31146,1.5659 0.85269,0.4841 1.77025,0.8844 2.52263,1.5241 0.29393,0.2588 0.62397,0.6436 0.53798,1.0875 -0.0619,0.2727 0.17356,0.555 0.46066,0.4574 1.82852,-0.2283 3.64278,-0.4998 5.4818,-0.626 0.99803,-0.016 2.00363,-0.078 2.99751,0.035 1.26382,0.1756 2.45151,0.809 3.38064,1.6855 1.57711,1.5004 2.89909,3.2386 4.33023,4.8766 1.30912,1.5179 2.61449,3.0431 4.01199,4.4805 0.206,0.2611 0.73572,0.2815 0.81675,-0.096 -0.0775,-0.7077 -0.28051,-1.4014 -0.44361,-2.0948 -0.89686,-3.4661 -2.59234,-6.7676 -5.13904,-9.3111 -2.9531,-3.0096 -6.96831,-4.8483 -11.1134,-5.4675 -1.25491,-0.1915 -2.52527,-0.2787 -3.79452,-0.2702 z"
         id="path16540"
         transform="scale(0.26458333)" /><path
         style="fill:#666666;fill-opacity:1;stroke:#666666;stroke-width:0.0550055;stroke-linejoin:round;stroke-dasharray:none;stroke-opacity:1"
         d="m 571.79998,1028.9312 c -1.7261,0 -3.6047,0.437 -4.78602,1.7877 -1.05663,1.1632 -1.08565,2.8467 -0.96441,4.3243 0.0733,1.1222 0.5622,2.2649 1.47628,2.9495 0.39209,0.247 0.75245,-0.1195 1.00008,-0.3896 1.28198,-1.1121 2.90048,-1.9816 4.64028,-1.9349 2.07578,-0.06 3.99197,0.9521 5.59684,2.182 3.0547,2.4284 5.34218,5.6676 7.18903,9.07 1.01481,1.8986 1.90624,3.8591 2.55903,5.9113 0.30566,1.7526 0.94945,1.0172 0.92375,-0.245 0.35685,-2.1818 0.32963,-4.4117 0.14393,-6.6084 -0.56903,-4.8223 -2.94164,-9.441 -6.66884,-12.5779 -0.54983,-0.4729 -1.12284,-0.9286 -1.72759,-1.3205 -2.74455,-1.876 -6.02462,-3.1595 -9.38236,-3.1485 z"
         id="path16538"
         transform="scale(0.26458333)"
         sodipodi:nodetypes="cccccccccccccc" /><path
         style="fill:#666666;fill-opacity:1;stroke:#666666;stroke-width:0.083219;stroke-linejoin:round;stroke-dasharray:none;stroke-opacity:1"
         d="m 458.9597,1015.6398 c -3.56526,0.1158 -6.8061,2.4891 -8.32576,5.663 -1.00929,1.8445 -1.29816,5.6505 -0.84897,7.5326 0.24422,0.5851 0.85212,-1.2566 0.95468,-1.8662 0.80111,-1.776 2.16964,-3.3998 3.88686,-4.3138 0.8369,-0.4604 1.81725,-0.3647 2.72218,-0.3337 0.41642,-0.2872 0.73063,-0.7615 1.19039,-1.0326 0.70737,-0.5952 1.85432,-1.0034 1.97324,-2.0476 -0.0106,-1.1586 -0.0473,-2.3524 -0.31338,-3.4754 -0.26307,-0.3575 -0.85313,-0.066 -1.23924,-0.1263 z"
         id="path16398"
         transform="scale(0.26458333)"
         sodipodi:nodetypes="cccccccccc" /><path
         style="fill:#b5ad8b;fill-opacity:0.992157;stroke:#b5ad8b;stroke-width:0.125956;stroke-linejoin:round;stroke-dasharray:none;stroke-opacity:0.992157"
         d="m 544.82521,996.34251 c -0.94588,0.12833 -3.06319,3.89849 -3.62935,4.51779 -3.23407,4.6823 -7.14485,8.9318 -9.76212,14.0176 -0.76967,1.637 -1.45963,3.8294 -0.19009,5.3993 1.55009,1.8528 3.75585,3.0626 5.98875,3.8976 3.09438,0.7433 6.48826,0.4182 9.31454,2.042 2.52675,1.3629 5.3765,1.8913 8.20853,2.132 2.22141,0.3079 4.56749,0.406 6.64613,1.2857 0.81402,0.6909 1.96665,0.4224 2.92632,0.7307 0.88756,0.041 1.83001,0.5724 2.70223,0.2661 1.04678,-0.687 2.16032,-1.3362 3.43937,-1.4568 3.76686,-0.5076 7.51392,0.9277 10.65497,2.9404 0.65078,0.2155 1.29734,-0.3744 1.88033,-0.6177 0.66313,-0.4742 1.60669,-0.9374 1.6874,-1.8282 0.66478,-0.8563 -0.33045,-1.6991 -1.03365,-2.0935 -1.45987,-1.0025 -3.35874,-1.5654 -4.40456,-3.0631 -0.087,-0.8632 -1.25436,-0.6337 -1.85606,-0.7359 -2.36026,-0.018 -4.76199,-0.3414 -7.10062,0.078 -0.86271,0.1273 -0.84551,1.2308 -1.63553,1.4942 -2.18978,0.9352 -4.64392,0.6949 -6.96561,0.7173 -3.06261,-0.118 -6.19616,-0.7763 -8.80575,-2.4449 -0.99542,-0.7003 -2.34219,-1.7735 -1.88759,-3.1562 0.31861,-0.9507 -0.82652,-1.3819 -1.37155,-1.907 -0.54327,-0.5855 -1.61649,-0.7741 -1.82562,-1.613 -0.24555,-1.8209 0.97612,-3.3509 2.198,-4.5394 2.26379,-2.459 5.14191,-4.367 6.99829,-7.1902 0.22295,-0.5355 0.92863,-1.2646 0.43566,-1.8199 -0.68069,-0.2366 -1.37485,0.366 -2.09324,0.1883 -1.42875,-0.1191 -1.77268,-1.7776 -2.22808,-2.8614 -0.29691,-0.7075 -0.66411,-2.01714 -1.69751,-1.71875 -2.0631,0.80009 -3.58554,2.78905 -5.82616,3.12225 -1.41412,0.092 -2.06876,-1.4987 -1.94024,-2.69696 -0.0165,-0.35437 1.49653,-3.12581 1.17281,-3.08633 z"
         id="path16396"
         transform="scale(0.26458333)"
         sodipodi:nodetypes="ccccccccccccccccccccccccccccccccc" /><path
         style="fill:#b5ad8b;fill-opacity:0.992157;stroke:#b5ad8b;stroke-width:0.256039;stroke-linejoin:round;stroke-dasharray:none;stroke-opacity:0.992157"
         d="m 530.96671,996.58178 c -1.79973,0.40325 -3.36865,4.00142 -4.55963,5.22042 -3.41887,4.1933 -6.00229,9.1979 -10.29396,12.6009 -3.41485,1.4187 -6.25906,3.9311 -9.51855,5.6141 -5.35347,0.4776 -10.72111,-0.5858 -15.98656,-1.5113 -2.39922,-0.2589 -4.81774,-1.6814 -7.24553,-1.0749 -2.04862,1.18 -4.61189,0.3455 -6.7887,-0.025 -3.19606,-0.769 -6.3449,-1.735 -9.33543,-3.0703 -2.30919,-0.2247 -4.6009,0.4709 -6.80432,1.0795 -0.56282,1.5489 0.92871,4.1118 -0.98575,5.2424 -1.14534,0.5672 -2.56946,1.9824 -1.53555,3.2773 3.12293,1.9963 7.16579,2.2381 10.74415,1.5888 1.26221,-0.1073 1.83816,-1.6627 3.1486,-1.3448 7.78172,-0.6741 14.86834,3.1108 22.30432,4.699 5.51961,1.453 10.87636,-1.1967 16.32076,-1.5952 2.14261,-0.096 4.40465,0.033 6.13168,1.4433 5.04491,2.7805 10.84984,3.6988 16.18582,5.7016 2.13915,1.3721 3.60304,4.0103 6.41106,4.089 7.55672,1.737 14.72374,5.0255 22.36951,6.4134 1.77315,0 3.79359,0.4223 5.39861,-0.4673 1.42643,-0.9562 1.55348,-2.6831 1.26355,-4.2276 0.14792,-2.0865 -2.2654,-3.1878 -1.99364,-5.2936 -0.14251,-1.3679 0.03,-2.767 0.38218,-4.0547 -3.40158,-1.366 -6.91128,-0.8464 -9.89915,0.3742 -2.01103,1.4958 -3.8088,3.5425 -6.41423,3.9984 -4.39558,0.8311 -8.84475,-0.9543 -12.66769,-2.9804 -1.96706,-1.1127 -4.34509,-2.8995 -3.7954,-5.4928 0.24101,-1.2162 3.03142,-1.3697 2.85473,-2.6294 -2.59972,-1.4138 -6.22432,-2.8014 -6.05341,-5.4148 -0.0552,-3.7573 2.62984,-6.8208 4.5727,-9.81 1.53174,-2.3153 5.93947,-7.5406 7.11147,-10.0379 -0.63192,-1.0186 -4.47587,3.1131 -5.44969,2.7728 -2.32665,-0.2017 -4.40887,-1.5085 -5.76006,-3.36155 -0.25929,-0.18377 0.19891,-1.7428 -0.11189,-1.72357 z"
         id="path13626"
         transform="scale(0.26458333)"
         sodipodi:nodetypes="cccccccccccccccccccccccccccccccccc" /><path
         style="fill:#87655c;fill-opacity:1;stroke:#87655c;stroke-width:0.948661;stroke-linejoin:round;stroke-dasharray:none;stroke-opacity:1"
         d="m 500.58105,663.42978 c -21.73204,-0.19784 -43.14842,7.18335 -60.77405,19.76337 -2.62168,1.50063 -2.90863,2.34598 -7.96183,5.58502 -15.92524,18.06291 -3.94543,6.18389 -11.386,15.70514 -2.58008,3.30158 -6.92399,7.06042 -9.37114,9.15636 -2.20187,1.88586 -3.54913,1.23175 -5.35794,1.35781 -2.49554,8.67341 3.21161,47.82591 4.99242,51.69082 4.46897,9.69903 10.48714,31.58672 16.27423,43.38889 1.44938,2.95584 2.3935,5.89258 3.88838,8.29827 1.27632,2.05397 2.14354,3.9237 3.09388,5.82585 0.49019,0.98113 1.54773,1.73913 1.55052,3.02191 22.40466,38.36735 54.20786,72.29711 94.40051,92.12089 9.48449,4.48931 19.1696,8.93521 29.43511,11.2793 3.04922,1.37473 2.9961,-0.18268 1.71516,-1.69536 -0.93175,-2.91441 -2.59769,-7.33961 0.93087,-9.24626 4.70465,-2.1458 7.65022,-6.87138 12.22502,-9.10959 4.18165,-0.41321 26.78734,18.51486 30.90833,18.65769 4.83156,-2.27987 4.51624,-25.55553 -20.78725,-22.9251 -1.1837,-1.53259 -4.33445,-2.95933 -2.81083,-5.30563 0.6782,-1.80572 1.11324,-5.07406 3.81951,-4.22256 2.50804,-0.10442 19.11795,11.62085 21.5262,10.60238 1.6292,-2.89753 -16.35082,-14.27213 -18.08992,-15.83404 -13.19432,-10.35975 -27.99486,-18.46398 -41.4492,-28.39828 -2.67294,-1.94702 -4.12692,-7.44087 -6.68375,-9.47582 -3.56893,0.66902 -7.67489,2.33493 -10.71678,0.0855 -13.35964,-8.08604 -22.56431,-20.21832 -33.53128,-30.99757 -2.27771,-1.86884 -3.35887,-6.75778 -6.01271,-7.69574 -5.38857,1.62193 -10.39768,-1.79715 -14.06219,-5.09892 -4.6861,-5.06812 -9.65935,-10.34293 -12.32246,-16.81055 -0.21265,-5.49316 -3.35192,-10.20457 -6.12191,-14.73042 1.48041,-2.56214 5.37269,-3.82005 4.49394,-7.31007 0.58775,-5.38535 -0.68179,-11.46644 2.22214,-16.32101 3.05744,-3.13591 8.13128,-1.8501 12.02584,-1.80761 11.39875,1.27595 23.44843,2.10668 33.35761,8.54816 19.34949,12.14394 33.15613,30.89273 49.87376,46.14382 7.42123,6.82406 16.2817,14.02833 26.88701,14.00415 4.57481,-0.008 5.24019,-5.48649 4.81277,-8.98779 -0.10677,-4.75397 -2.49239,-9.16338 -2.76487,-13.82531 11.64939,6.90503 22.60372,15.73636 35.84817,19.44219 2.37554,0.85869 6.30186,0.1375 5.99912,-3.07087 -1.15812,-7.16581 -5.95931,-13.099 -9.42252,-19.29859 -2.62576,-4.57379 -6.14165,-8.93546 -8.0906,-13.74212 4.80041,1.36629 8.70601,5.01439 13.11601,7.30387 3.67595,1.80432 7.17405,4.83854 11.33403,5.25883 2.40825,-0.47406 2.59772,-3.52069 1.01899,-5.03459 -2.6701,-3.662 -5.92894,-7.97318 -5.16568,-12.98976 -0.18731,-3.23481 2.27868,-8.34364 6.3725,-7.78301 8.9543,0.45338 15.74307,7.22034 22.90851,11.93748 4.73457,3.005 13.19502,10.29375 17.95616,13.05256 -0.54147,-0.24273 -2.71828,-4.13346 -2.13841,-5.72943 -0.69123,-2.93659 -1.65256,-6.9734 -2.85944,-10.22383 -0.7913,-2.13117 -1.80257,-3.66514 -2.50038,-5.80878 -1.97715,-6.07378 -18.01064,-25.2787 -31.8913,-36.96491 -3.60453,-3.03469 -7.37302,-5.63749 -10.34705,-7.28285 -10.0163,-4.57341 -20.13688,-8.92522 -28.60208,-15.96844 -21.95731,-15.25931 -41.00795,-35.84032 -66.88008,-44.63901 -11.12962,-4.18504 -23.19368,-3.75393 -34.88503,-3.89648 z"
         id="path10647"
         transform="scale(0.26458333)"
         sodipodi:nodetypes="sccsscssssccccccccccccccccccccccccccccccccccccccccssscccss" /><path
         style="fill:none;fill-opacity:1;stroke:#000000;stroke-width:0.5;stroke-dasharray:none"
         d="m 101.81459,158.57758 c 2.34864,2.30164 1.19859,4.77243 1.87943,7.61294 0.56048,2.33838 3.39437,3.33674 3.76333,5.69289 -0.75242,5.95232 -1.56246,8.99072 -0.60789,14.50808 0.14995,0.91925 -0.18586,1.93712 0.10328,2.71993"
         id="path1900"
         sodipodi:nodetypes="csccc" /><path
         id="path5867"
         style="fill:#a49085;fill-opacity:1;stroke:none;stroke-width:0.226324;stroke-dasharray:none"
         d="m 472.47462,752.78517 -0.59961,0.008 h -0.0898 c -3.69599,-0.26729 -8.72456,1.63141 -8.5039,6.08008 -0.79645,3.91137 -0.56756,10.18649 -0.82227,14.00195 -0.0797,1.1945 -0.26285,1.74624 -0.79492,2.07812 -1.5336,1.18927 -2.95861,2.36733 -3.47266,3.69727 -0.27227,0.70439 1.77779,2.64524 2.38281,3.29297 2.40788,3.23848 3.01453,6.9905 3.56446,10.87305 0.16106,0.40605 -0.12943,0.79979 0.0566,1.20898 0.97587,2.14636 3.32992,5.11057 4.82617,7.19336 3.49608,4.8666 8.18248,9.46266 12.98828,13.33398 0.58866,0.34297 3.20259,2.21645 4.81445,2.51563 1.40647,0.26106 2.10794,-1.16964 2.68946,-1.125 2.14721,0.16483 -0.13699,-0.77657 1.66992,0.68164 10.80815,10.89727 20.23771,23.36705 31.78125,33.81445 4.10666,3.28212 11.87646,8.9185 15.27148,5.73047 1.64776,-1.12299 3.21288,1.87052 4.53516,2.51563 0.2185,0.2131 0.0415,0.36524 0.26563,0.57226 11.8977,10.98841 27.77887,17.9278 40.41992,27.73633 7.24606,4.86374 14.00482,11.68251 20.99806,16.45557 0.65074,0.96587 1.49103,1.74108 2.63302,1.92328 1.15908,0.68665 2.38633,1.10152 3.56618,1.63287 23.97166,12.55772 47.19285,26.73031 68.74024,43.14063 15.7173,12.2192 23.66167,30.32744 36.81055,46.07812 0.0683,0.0818 0.1456,0.12766 0.21484,0.19922 0.72945,1.66918 4.1524,5.10417 5.10352,6.57427 10.27868,13.3552 20.86591,26.8683 31.63086,39.8398 4.66471,5.4898 9.2849,11.0867 14.75781,15.8027 1.17102,0.8646 2.40069,2.0721 3.94922,2.0606 1.11967,-0.316 1.11262,-1.8197 0.91797,-2.7442 -0.88399,-3.477 -3.31506,-6.2832 -5.59961,-8.9453 -0.90733,-1.0615 -1.93012,-2.0265 -2.76953,-3.1445 3.75351,2.2568 7.1363,5.0773 10.76367,7.5273 2.03163,1.3151 4.20231,3.026 6.76172,2.8321 2.35129,-0.415 3.52903,-2.8086 4.47656,-4.7442 0.65005,-1.1906 0.92532,-2.5849 1.63867,-3.7246 1.18603,0.3393 1.96366,1.4736 2.87695,2.2442 2.97235,2.8954 6.05276,5.7839 9.67774,7.8476 0.46068,0.2548 1.48223,0.6705 1.65234,-0.1094 -0.1184,-7.0281 -3.38742,-13.5197 -7,-19.3789 -7.22173,-11.4395 -16.49176,-21.3705 -24.73047,-32.0546 -3.84987,-4.9431 -7.58534,-10.02217 -10.44726,-15.61529 -0.10879,-0.0454 -0.22297,-0.0788 -0.33789,-0.10547 -1.16218,-3.08797 -3.81666,-6.15043 -5.2793,-9.31055 -14.46136,-25.15914 -33.31563,-51.70083 -45.73242,-79.46679 -18.1966,-37.81477 -38.89271,-74.7256 -67.22852,-105.94337 -0.35001,-0.39344 -1.36338,-2.44816 -1.65039,-2.11328 -0.92303,1.07696 -3.9968,1.71729 -5.91211,0.41797 -5.10645,-1.67191 -12.34594,-8.51024 -20.37695,-11.84961 -1.52278,-0.41269 0.55552,0.005 0.8789,2.42578 2.26594,4.40664 11.14544,17.09831 13.46485,21.54102 1.47232,2.82015 2.67332,5.74684 3.24609,8.9043 0.35598,3.72747 -4.15844,4.32345 -6.83789,3.36132 -10.34542,-2.28608 -14.34923,-6.47341 -27.94922,-14.51953 -0.73264,-0.31993 -7.00268,-5.41682 -7.49219,-4.98632 -0.54707,0.48112 1.15857,5.32878 1.60547,6.14257 0.5652,4.89145 3.33008,10.74414 -0.0605,15.125 -3.16715,3.00613 -8.23291,1.18351 -11.94336,0.31446 -12.13012,-4.22005 -20.48477,-14.69312 -29.5625,-23.22071 -12.49746,-12.49811 -23.45447,-26.67206 -39.99219,-36.11328 -10.29541,-6.53018 -24.10637,-7.7704 -36.44531,-8.50976 z M 725.17188,990.5215 c 0.0324,-0.002 0.0786,0.009 0.11133,0.008 -0.0462,-10e-6 -0.0925,10e-6 -0.13867,0 0.011,-7.3e-4 0.0163,-0.007 0.0273,-0.008 z"
         transform="scale(0.26458333)"
         sodipodi:nodetypes="scccscsccsscssccccccccccsccccccccccccccccccccccscccscccsccccccsccssc" /><path
         id="path5787"
         style="fill:#e6e6e6;fill-opacity:1;stroke:none;stroke-width:0.115159;stroke-dasharray:none"
         d="m 584.05633,896.65104 c -1.67765,0.43234 -1.55095,2.82216 -2.23992,4.14585 -0.31253,0.64741 -0.52795,1.69802 -0.3999,2.27195 0.32117,1.4396 1.9166,2.19932 3.05029,3.10305 2.97363,2.71932 6.81498,4.22409 9.54261,7.19096 2.81228,3.79826 0.965,8.34498 1.19763,12.59615 0.22827,2.67263 -1.62418,5.99879 -1.84704,8.62136 0.93183,0.80156 3.61377,-0.75407 4.78063,-0.59402 3.22246,-0.16298 6.4899,-0.9642 9.58594,0.32812 5.4388,1.3297 10.86658,2.91142 16.39258,3.74219 2.04125,-1.26554 5.13904,-3.01512 7.1582,-0.80273 3.14264,3.30457 6.63352,6.37787 11.11719,8.29883 23.51733,13.67128 44.33733,31.35937 66.60352,46.88867 2.47124,1.49124 4.47983,3.43279 6.95312,5.01562 0.25841,0.20703 1.33761,1.00689 1.35296,0.58577 -0.0832,-0.3787 -0.94545,-1.43958 -1.15374,-1.75764 -0.8836,-1.08088 -1.71617,-2.20308 -2.58398,-3.29102 -10.08238,-13.05763 -18.78134,-29.51643 -31.06251,-39.82812 -10.78302,-9.37116 -22.94319,-16.99019 -34.95898,-24.6543 -16.05118,-9.86148 -32.32243,-19.4962 -49.51563,-27.25 -4.44286,-1.7481 -9.19053,-4.04403 -13.97297,-4.61069 z"
         transform="scale(0.26458333)"
         sodipodi:nodetypes="ccscccccccccccccccccc" /><path
         style="fill:#8d7268;fill-opacity:1;stroke:none;stroke-width:0.0641482;stroke-dasharray:none"
         d="m 603.03673,933.70011 c -3.15007,0.1525 -6.33095,0.30588 -9.43004,0.90465 -1.57227,0.9018 -1.93083,2.96596 -2.01416,4.63397 -0.15227,3.57743 0.15617,7.22977 1.24278,10.65026 0.43931,0.73191 1.40652,-0.0643 2.01944,-0.099 2.45976,-0.61817 4.77738,-2.0034 7.35921,-1.94472 2.19536,0.39303 4.28422,1.27793 6.32757,2.13384 1.38754,0.8858 2.16897,2.49344 2.74743,3.98357 -0.10072,0.72299 0.79402,0.88917 1.19868,0.39382 2.59814,-2.4521 4.41784,-5.59622 6.492,-8.47798 1.59287,-2.46077 3.45207,-4.73966 5.0291,-7.20571 0.20973,-0.80474 -0.99505,-0.68788 -1.49968,-0.80619 -5.88281,-0.99324 -11.58282,-2.90687 -17.43828,-4.08435 -0.67408,-0.0899 -1.35546,-0.086 -2.03405,-0.0822 z"
         id="path5779"
         transform="scale(0.26458333)" /><path
         style="fill:#8d7268;fill-opacity:1;stroke:none;stroke-width:0.0611804;stroke-dasharray:none"
         d="m 577.5465,910.40029 c -2.06652,0.0899 -4.43428,0.14496 -5.92102,1.81507 -2.35367,2.19495 -4.29219,4.95328 -7.28993,6.34331 -1.67025,1.07655 -4.14388,1.95416 -4.43733,4.21859 -0.18963,2.72836 1.54582,5.17684 1.33134,7.92261 -0.074,2.47825 0.74578,4.92084 2.32993,6.83238 1.52503,1.94749 3.15953,4.15426 4.66725,6.10921 0.78239,0.60623 1.05045,-1.048 1.68738,-1.22918 4.07607,-0.58372 8.02142,-2.06021 12.11487,-2.3968 2.08311,-0.10835 2.85077,2.31882 2.91688,3.98075 0.18358,0.77777 -0.7582,2.10776 -0.41161,2.82177 0.83878,0.44531 1.9069,-1.12031 2.53276,-1.54337 1.81173,-1.72718 3.74479,-3.60633 4.49062,-6.06314 0.1827,-1.68754 0.66611,-3.35983 1.66932,-4.72589 3.06301,-4.7707 2.47692,-11.17889 -0.33766,-15.91988 -2.60471,-4.52559 -7.47018,-7.55914 -12.65574,-8.0414 -0.89151,-0.10238 -1.79001,-0.14131 -2.68711,-0.12403 z"
         id="path5777"
         transform="scale(0.26458333)"
         sodipodi:nodetypes="scccccccccccccccss" /><path
         style="fill:#ffff00;fill-opacity:1;stroke:#000000;stroke-width:0.5;stroke-dasharray:none"
         d="m 150.73385,249.353 -10.30379,12.08744 -4.95089,5.87878 c -0.70072,0.83205 -5.00594,-1.68944 -5.66048,0.1941 -0.19757,0.56857 1.44929,0.72493 0.8521,0.64972 -0.23062,-0.029 -0.84722,0.40646 -1.12889,0.35417 -2.8836,-0.53532 -7.70907,-0.65005 -5.04219,0.20829 4.31736,1.38956 2.66203,0.0578 4.06261,0.45108 1.33177,0.37391 3.31723,0.72993 5.26805,0.76459 0.40338,0.007 2.01945,-1.38147 2.47656,-1.44741 1.01976,-0.1471 3.24634,-4.41145 4.20625,-4.77938 -0.0978,0.71972 0.83769,1.26027 1.58129,1.33519 0.60971,0.0614 1.74466,-1.06391 2.9688,-2.51825 l 8.42717,-10.01187 c 0.57717,-0.68571 2.01817,-2.82229 0.83092,-3.75476 -0.38432,-0.30184 -2.87425,0.55929 -3.58751,0.58831 z"
         id="path1769"
         sodipodi:nodetypes="ccsssssssscssssc" /><path
         style="fill:#f2f2f2;fill-opacity:1;stroke:none;stroke-width:0.0262344;stroke-dasharray:none"
         d="m 449.55402,600.6456 c -0.56516,-0.0717 -1.18713,0.4067 -1.17047,0.98421 0.14437,0.58256 0.87966,0.50167 1.33085,0.6954 1.87915,0.53066 3.60981,1.80619 4.38176,3.63759 1.11476,2.25501 0.52514,5.16293 -1.28683,6.88426 -1.78381,1.72744 -4.39494,2.40764 -6.82718,2.21115 -2.14475,-0.28569 -3.7641,-2.07821 -4.57997,-3.98211 -0.36539,-0.8589 -0.52236,-1.7823 -0.65942,-2.69744 -0.24298,-0.72674 -1.10234,-0.88706 -1.71239,-1.19044 -0.65778,-0.22467 -1.48076,-0.45778 -2.11191,-0.0554 -0.7312,0.52894 -0.89562,1.54684 -0.55475,2.34767 0.56999,1.44282 1.64487,2.60272 2.47015,3.89849 1.60127,2.33572 3.83248,4.48122 6.68816,5.08291 2.10321,0.43311 4.29218,-0.10295 6.1326,-1.15152 2.12426,-1.19685 3.97025,-2.86652 5.48998,-4.76491 0.94304,-1.17544 1.3857,-2.71862 1.18447,-4.2142 -0.30115,-2.33092 -1.92795,-4.25613 -3.73601,-5.64058 -1.22433,-0.89074 -2.5737,-1.7165 -4.07663,-2.01345 -0.31912,-0.0392 -0.6416,-0.0318 -0.96241,-0.0316 z"
         id="path2021"
         transform="scale(0.26458333)" /><path
         style="fill:#ffff00;fill-opacity:1;stroke:none;stroke-width:0.00980025;stroke-dasharray:none"
         d="m 121.68564,159.83352 c -0.12026,-0.007 -0.0402,0.40446 -0.12032,0.51321 -0.0435,0.18121 -0.20249,0.29085 -0.3695,0.34802 -0.10149,0.11833 -0.01,0.30091 -0.0328,0.44714 0.0113,0.38865 -0.18542,0.74031 -0.43172,1.02641 -0.13619,0.13893 0.0366,0.31088 0.083,0.44683 0.0498,0.13175 0.15533,0.28989 0.0889,0.4286 -0.33101,0.0809 -0.67405,0.12808 -0.99643,0.24817 -0.71116,0.20916 -1.48028,0.41545 -2.21613,0.25457 -0.65312,-0.19545 -1.19401,-0.67788 -1.8711,-0.80595 -0.28129,-0.0416 -0.5821,0.16795 -0.73986,0.35163 0.0137,0.41895 0.0445,0.83932 0.0518,1.26023 0.16474,0.26125 0.45553,0.41812 0.69681,0.60459 1.06647,0.72512 2.34549,1.09601 3.6212,1.21097 0.76402,0.007 1.56309,0.0547 2.28513,-0.24099 0.38201,-0.17332 0.69448,-0.49331 1.10617,-0.59821 0.74805,-0.10963 1.50391,0.0679 2.25533,0.12788 0.20306,0.0162 0.44016,0.0697 0.60039,-0.0959 0.21673,-0.17762 0.44527,-0.41302 0.4639,-0.70628 -0.085,-0.37144 -0.37251,-0.65545 -0.61912,-0.93029 -0.87779,-0.88051 -1.99629,-1.47603 -2.87685,-2.35303 -0.36169,-0.35651 -0.5495,-0.83815 -0.80843,-1.26691 -0.0297,-0.0406 -0.11679,-0.27535 -0.17038,-0.27067 z"
         id="path2096"
         sodipodi:nodetypes="cccccccccccccccccccccccc" /><path
         style="fill:#1a1a1a;fill-opacity:1;stroke:none;stroke-width:0.0146191;stroke-dasharray:none"
         d="m 456.04511,613.55221 c -0.36511,0.16029 -0.61374,0.50706 -0.91174,0.76357 -1.1136,1.09432 -2.3271,2.01386 -3.67769,2.78325 -0.23618,0.11899 -2.04836,0.72652 -1.87665,1.00399 0.18601,0.31522 2.11724,-0.23741 2.38325,-0.29495 1.41341,-0.38734 2.78602,-0.90033 4.2418,-1.12632 0.35082,-0.10096 0.83171,-0.0714 1.03836,-0.42864 0.21621,-0.51624 -0.10597,-1.04798 -0.30075,-1.51749 -0.20828,-0.38029 -0.3381,-0.82847 -0.65642,-1.13357 -0.0701,-0.049 -0.15681,-0.0614 -0.24016,-0.0499 z"
         id="path2360"
         transform="scale(0.26458333)"
         sodipodi:nodetypes="sccccccccss" /><path
         style="fill:#ffff00;fill-opacity:1;stroke:#000000;stroke-width:0.5;stroke-dasharray:none"
         d="m 96.887543,154.35959 c -3.435623,-0.27235 -2.761919,-1.46676 0.315717,-2.16579 1.169921,-0.26573 2.272501,-0.20537 3.17382,-0.19902 0.69927,0.005 6.33681,0.19531 6.4749,0.9767 0.11293,0.63911 -1.65899,0.51029 -1.03029,1.54819 0.0351,0.0692 2.81386,0.25053 1.79472,0.95345 -0.4207,0.29017 -2.69184,-0.58744 -1.94439,0.0281 1.31946,0.49194 2.55949,1.21978 3.59587,1.95007 0.75679,0.53328 1.39684,1.58517 2.02454,2.32955 -1.66283,-0.57604 -3.06044,-1.58194 -4.62023,-2.08658 -0.38666,-0.12509 -0.8432,-0.10663 -1.18937,-0.23168 z"
         id="path1757"
         sodipodi:nodetypes="cssscscscscc" /><path
         style="fill:#f2f2f2;fill-opacity:1;stroke:#000000;stroke-width:0.5;stroke-dasharray:none"
         d="m 118.66576,159.21889 c -0.42655,0.0775 -0.90196,0.10193 -1.30496,0.28311 -1.54494,0.69455 -0.70335,3.41108 0.91275,3.32262 2.70845,-0.14825 2.74415,-3.25244 0.39221,-3.60573 z"
         id="path1759" /><path
         style="fill:#000000;fill-opacity:1;stroke:#000000;stroke-width:0.1;stroke-dasharray:none"
         d="m 118.39678,160.44125 c -1.61513,-0.12692 -0.50644,1.31924 0.0475,1.18073 0.59439,-0.14861 1.20561,-1.08225 -0.0475,-1.18073 z"
         id="path1761"
         sodipodi:nodetypes="sss" /><path
         style="fill:none;fill-opacity:1;stroke:#000000;stroke-width:0.5;stroke-dasharray:none"
         d="m 116.54627,160.91921 c -0.19169,-0.11583 -0.75077,-0.42077 -0.96167,-0.1798 -0.35162,0.40173 0.2617,1.01118 0.4656,1.33552 0.11907,0.1894 0.24378,0.36312 0.37378,0.52006 1.11662,1.34796 2.62403,1.45871 4.30433,-0.35397 1.79852,-1.94021 -1.98864,-3.95477 -2.03069,-3.03472"
         id="path1763"
         sodipodi:nodetypes="cssssc" /><path
         style="fill:none;fill-opacity:1;stroke:#000000;stroke-width:0.5;stroke-dasharray:none"
         d="m 120.68336,162.26727 c 0.60123,1.14389 0.24609,0.73766 -0.45737,0.98024 -0.76574,0.26406 -1.52254,0.4634 -2.28884,0.39112 -0.91089,-0.0859 -2.1008,-1.49628 -2.82492,-0.51598 0.0794,0.425 0.0553,0.85426 0.0658,1.29922 1.52393,1.4802 4.30737,2.10648 6.33304,1.62564 0.51385,-0.12197 0.90529,-0.61204 1.38245,-0.70955 0.71381,-0.14586 1.8798,0.16573 2.6627,0.15511 0.26598,-0.12491 0.78729,-0.61274 0.58802,-0.98109 -0.69875,-1.29163 -2.61807,-2.13895 -3.57405,-3.23292 -0.39126,-0.44773 -0.62182,-1.12285 -0.91228,-1.62422 -0.007,-0.0121 0.20369,1.01157 -0.45639,1.08029"
         id="path1767"
         sodipodi:nodetypes="cssccsscsssc" /><path
         style="fill:#ffff00;fill-opacity:1;stroke:#000000;stroke-width:0.5;stroke-dasharray:none"
         d="m 142.06683,270.96164 c -2.72564,1.26399 1.69175,3.27435 3.3309,2.98842 0.70896,-0.12367 1.36534,-0.52023 1.78018,-1.11774 0.0617,-0.0889 2.03454,-0.21428 1.24562,-0.47199 -1.37407,-0.44886 -2.50561,-0.0999 -3.87929,-0.88418 -0.74816,-0.42717 -1.67929,-0.30927 -2.47741,-0.51451 z"
         id="path1771" /><path
         style="fill:#ffff00;fill-opacity:1;stroke:#000000;stroke-width:0.5;stroke-dasharray:none"
         d="m 160.92527,251.28945 c 0.43896,0.14993 1.17262,1.42924 0.7542,1.79309 -2.69344,2.3422 -6.61647,5.43811 -8.19033,6.85816 -1.87945,1.69578 -3.77033,4.32743 -6.0238,5.47554 -1.27632,0.65026 -0.92533,-1.18008 -1.5349,-1.09862 -0.48636,0.065 -1.56847,1.44546 -2.03774,0.54093 -0.41625,-0.80232 1.1866,-2.36043 1.56785,-2.71473 1.41651,-1.31638 2.80773,-2.31922 4.14866,-3.54509 1.57726,-0.92751 6.12587,-6.03154 7.30287,-7.13774 2.82937,-0.87761 1.74836,-0.94513 4.01319,-0.17154 z"
         id="path1773"
         sodipodi:nodetypes="sssssssccs" /><path
         style="fill:#ffff00;fill-opacity:1;stroke:#000000;stroke-width:0.5;stroke-dasharray:none"
         d="m 145.88281,269.88637 c -0.12741,0.1129 -0.28784,0.33634 0.0942,0.71695 1.70859,1.70209 7.74035,0.69429 2.79319,-0.34875 -0.44833,-0.0945 -0.97443,-0.23916 -1.42886,-0.25223 -0.49065,-0.014 -0.97051,-0.17674 -1.45853,-0.11597 z"
         id="path1775" /><path
         style="fill:none;fill-opacity:1;stroke:#000000;stroke-width:0.5;stroke-dasharray:none"
         d="m 150.2278,274.69491 c 2.38895,-2.52516 5.27668,2.41398 5.61086,4.32104 1.3874,-6.33918 -5.92247,-8.23285 -6.05819,-5.6303 -0.0371,0.71154 0.0643,0.95035 0.44733,1.30926 z"
         id="path1777"
         sodipodi:nodetypes="ccsc" /><path
         style="fill:none;fill-opacity:1;stroke:#000000;stroke-width:0.5;stroke-dasharray:none"
         d="m 154.6981,272.43172 c 3.64031,-0.4914 2.59702,-0.3034 5.73677,2.99752 -0.60694,-4.20014 -4.21667,-5.30589 -7.12477,-4.54555 -0.43646,0.56878 1.84334,0.94909 1.388,1.54795 z"
         id="path1779"
         sodipodi:nodetypes="cccsc" /><path
         style="fill:none;fill-opacity:1;stroke:#000000;stroke-width:0.5;stroke-dasharray:none"
         d="m 143.64198,264.02229 c -0.45728,1.32775 -3.84578,4.45812 -3.18442,5.76066 0.26278,0.51754 1.01175,0.89786 1.58962,1.18215"
         id="path1831"
         sodipodi:nodetypes="csc" /><path
         style="fill:none;fill-opacity:1;stroke:#000000;stroke-width:0.5;stroke-dasharray:none"
         d="m 150.2328,274.65613 c 1.25076,3.99763 -4.98384,0.48878 -8.02745,0.0376 -0.50403,-0.0747 -0.91981,-0.92664 -1.22511,-1.01693 -0.9344,-0.27635 -2.29735,-0.66495 -3.21709,-0.98835 -0.69158,-0.0359 -1.32465,-0.81165 -1.98696,-0.90098 -1.38351,-0.1866 -2.85217,0.70725 -4.32715,0.55268 -2.414,-0.25298 -4.48845,-1.7185 -6.95855,-1.32251 -0.0345,0.73106 -3.87833,0.47269 -3.45651,-0.52533 0.13766,-0.32569 0.74266,-0.46173 0.80224,-0.79048 0.0209,-0.11551 -0.0858,-0.9698 -0.0727,-0.98181 0.24472,-0.22418 1.5018,-0.42857 1.96493,-0.37572"
         id="path1833"
         sodipodi:nodetypes="csscsscsscc" /><path
         style="fill:none;fill-opacity:1;stroke:#000000;stroke-width:0.5;stroke-dasharray:none"
         d="m 121.73936,268.72729 c -2.01056,-0.0943 -3.22529,1.9256 -2.68069,3.70477 0.0547,-1.05677 1.17765,-2.29539 1.97436,-1.90275"
         id="path1835"
         sodipodi:nodetypes="ccc" /><path
         style="fill:none;fill-opacity:1;stroke:#000000;stroke-width:0.5;stroke-dasharray:none"
         d="m 148.63506,272.52427 c 0.45916,-0.0127 0.90099,0.16939 1.35389,0.1873"
         id="path1874" /><path
         style="fill:none;fill-opacity:1;stroke:#000000;stroke-width:0.5;stroke-dasharray:none"
         d="m 147.59406,265.33361 c -0.1158,1.4356 -2.89986,2.44433 -2.67184,3.78441 0.0208,0.12259 0.78518,0.47026 0.90802,0.78372"
         id="path1876"
         sodipodi:nodetypes="csc" /><path
         style="fill:none;fill-opacity:1;stroke:#000000;stroke-width:0.5;stroke-dasharray:none"
         d="m 150.6858,271.00384 c 0.20338,-0.28806 2.25671,-0.10907 2.57572,-0.0803"
         id="path1878"
         sodipodi:nodetypes="cc" /><path
         style="fill:none;fill-opacity:1;stroke:#000000;stroke-width:0.5;stroke-dasharray:none"
         d="m 154.73675,272.44812 c -0.21809,0.41074 -0.59802,0.54396 -0.98071,0.67863"
         id="path1880" /><path
         style="fill:none;fill-opacity:1;stroke:#000000;stroke-width:0.5;stroke-dasharray:none"
         d="m 156.86241,251.42714 c -0.29091,-1.00656 -0.79993,-4.12958 0.41897,-4.20394 0.7527,-0.0459 1.9388,-0.25055 2.87774,-0.16489 0.25118,0.0229 4.9768,1.39119 5.15582,1.10313 -1.41716,1.65507 -2.40444,3.6932 -3.45841,4.53227"
         id="path1882"
         sodipodi:nodetypes="csscc" /><path
         style="fill:none;fill-opacity:1;stroke:#000000;stroke-width:0.5;stroke-dasharray:none"
         d="m 150.3722,249.73722 c -0.6808,-1.28929 -2.07374,-1.91992 -1.86558,-3.76868 0.0473,-0.4205 -0.70557,-1.65063 -0.19104,-2.25415 0.38176,-0.44779 1.28905,-0.74648 1.74692,-1.14233 0.41987,-0.363 1.27587,-1.50068 1.72983,-1.58274 4.98815,-0.90166 6.80243,4.09968 5.07509,6.39116"
         id="path1884"
         sodipodi:nodetypes="cssssc" /><path
         style="fill:none;fill-opacity:1;stroke:#000000;stroke-width:0.5;stroke-dasharray:none"
         d="m 154.62572,250.57696 c 0.66841,-0.28679 1.56675,-1.23781 1.87077,-1.96886"
         id="path1886"
         sodipodi:nodetypes="cc" /><path
         style="fill:none;fill-opacity:1;stroke:#000000;stroke-width:0.5;stroke-dasharray:none"
         d="m 165.19845,248.19816 c 1.94934,-1.37057 1.88811,0.38816 3.83825,1.47299 7.31334,4.0683 13.21826,9.37723 19.548,13.63794 0.40537,0.27082 1.56517,1.12998 1.25156,0.75673 -3.02063,-3.59505 -5.15026,-7.9817 -8.54294,-11.28735 -4.58549,-4.46785 -23.59485,-15.7911 -26.92963,-15.5281 -0.0251,0.0329 -0.70266,1.53 -0.53593,1.73521 2.00654,2.43446 4.35487,1.60875 3.63416,5.5529"
         id="path1888"
         sodipodi:nodetypes="cscssccc" /><path
         style="fill:none;fill-opacity:1;stroke:#000000;stroke-width:0.5;stroke-dasharray:none"
         d="m 160.29531,239.42461 c -1.65042,-1.50808 -7.02111,-5.68047 -10.89285,-8.04078 -2.37364,-1.44704 -4.87288,-2.884 -6.69535,-5.0437 -1.63922,2.07084 -7.21618,-3.92593 -8.28674,-5.46588 l -4.71842,-4.99781 c -0.34264,-0.0777 -0.57883,0.41424 -0.902,0.31289 -2.0579,-0.64536 -4.78439,-4.04437 -5.85712,-5.91263 -0.27031,-0.47077 -0.0393,-1.03518 -0.31342,-1.41005 -0.10476,-1.13845 -0.86592,-1.98525 -1.45245,-2.90458 l 1.15348,-1.1476 c 0.29307,-5.43116 -0.81136,-6.4468 6.84753,-5.14886 10.78236,0.50988 18.03183,18.00671 26.08532,17.80289 2.99437,-0.30594 0.0366,-6.47283 0.56031,-6.10388 1.19464,0.84164 9.83606,6.8646 10.90535,4.93968 1.69841,-0.66725 -5.14352,-9.57824 -4.45796,-9.37418 1.8113,0.63843 6.75262,4.98767 7.05962,2.75107 -0.17921,-1.21861 -1.3683,-1.83432 -1.52076,-2.99101 -1.0944,-8.30322 10.19935,2.4583 12.46787,3.50957 -1.56743,-2.32723 -0.0611,-4.62645 -4.94632,-9.9932 -4.0928,-4.49625 -5.25653,-6.44821 -10.62583,-8.77037 -9.85179,-4.26078 -16.27609,-15.3941 -28.46089,-15.9487 -9.60227,-0.43705 -15.17556,1.38124 -22.49605,7.12391 -2.56535,2.01243 -2.55621,6.10089 -6.51128,6.60593 -1.56422,18.9406 14.36447,49.86604 41.31903,57.29134"
         id="path1890"
         sodipodi:nodetypes="cscccsscccccscccscsssscc" /><path
         style="fill:none;fill-opacity:1;stroke:#000000;stroke-width:0.5;stroke-dasharray:none"
         d="m 169.35303,210.06854 c 8.14791,9.1259 14.08443,19.40091 18.7756,29.73714 3.74544,8.25247 9.39053,15.74458 13.16163,22.68069 3.02856,5.57039 10.87507,11.92834 10.97008,17.33591 0.0114,0.64814 -1.7582,-0.85564 -2.45895,-1.47536 -0.27632,-0.24436 -1.24377,-1.42448 -1.3637,-1.07565 -1.29527,3.76741 -2.29022,2.0526 -5.96392,-0.43789 -1.2442,-0.84347 2.35752,2.05935 1.98486,3.55721 -0.62497,2.51197 -12.74305,-14.13774 -14.88212,-16.64631"
         id="path1894"
         sodipodi:nodetypes="csssssssc" /><path
         style="fill:none;fill-opacity:1;stroke:#000000;stroke-width:0.5;stroke-dasharray:none"
         d="m 106.62454,152.94048 c 7.98901,-5.26139 17.59457,-2.1458 23.62373,3.68109 4.4636,4.31385 5.59073,8.50762 6.53691,13.87596 0.24898,1.63257 2.34694,4.35763 4.19849,5.84059"
         id="path1896"
         sodipodi:nodetypes="cscc" /></g><text
       xml:space="preserve"
       style="font-weight:bold;font-size:31.0817px;line-height:0.8;font-family:'Comic Sans MS';-inkscape-font-specification:'Comic Sans MS Bold';fill:#000000;fill-opacity:1;stroke:none;stroke-width:0.881054;stroke-linejoin:round;stroke-opacity:0.992157"
       x="-68.054024"
       y="214.08047"
       id="text1515"><tspan
         sodipodi:role="line"
         id="tspan1513"
         style="font-style:normal;font-variant:normal;font-weight:normal;font-stretch:normal;font-family:'DejaVu Sans Mono';-inkscape-font-specification:'DejaVu Sans Mono';fill:#000000;fill-opacity:1;stroke:none;stroke-width:0.881056"
         x="-68.054024"
         y="214.08047">[ˈmaɪ.nə]</tspan></text></g></svg>
